# xmcd
#
# Track frame offsets:
#	182
#	11775
#	25172
#	35760
#	60102
#	67607
#	83242
#	93295
#	107912
#	126822
#	136477
#	150102
#	159462
#	172655
#
# Disc length: 2416 seconds
#
# Revision: 1
# Processed by: cddbd v1.4PL0 Copyright (c) Steve Scherf et al.
# Submitted via: audiograbber 1.81.03
#
DISCID=9b096e0e
DTITLE=Risky Blues - Doggin' Around
DYEAR=1995
DGENRE=Blues
TTITLE0=There Ain't Room Here To Boogie
TTITLE1=Choo Choo Sh' Boogie
TTITLE2=Your Feet's Too Big
TTITLE3=Fat Mamma Blues
TTITLE4=Hickery Dickery Dock
TTITLE5=Romance Without Finance
TTITLE6=Sixty Minute Man
TTITLE7=Natural Ball
TTITLE8=Somebody's Been Usin' That Thing
TTITLE9=Big Fat Mammas Are Back In Style Again
TTITLE10=My Money's Green
TTITLE11=Champagne
TTITLE12=Thirteen Question Method
TTITLE13=Big Ten Inch
EXTD=
EXTT0=
EXTT1=
EXTT2=
EXTT3=
EXTT4=
EXTT5=
EXTT6=
EXTT7=
EXTT8=
EXTT9=
EXTT10=
EXTT11=
EXTT12=
EXTT13=
PLAYORDER=
